<?xml version="1.0" encoding="UTF-8"?>
<svg width="130px" height="144px" viewBox="0 0 130 144" version="1.1" xmlns="http://www.w3.org/2000/svg" xmlns:xlink="http://www.w3.org/1999/xlink">
    <!-- Generator: Sketch 47.1 (45422) - http://www.bohemiancoding.com/sketch -->
    <title>Combined Shape</title>
    <desc>Created with Sketch.</desc>
    <defs>
        <path d="M150,1033 L150,1062 C150,1063.65685 148.656854,1065 147,1065 L23,1065 C21.3431458,1065 20,1063.65685 20,1062 L20,1033 C23.3137085,1033 26,1030.31371 26,1027 C26,1023.68629 23.3137085,1021 20,1021 L20,924 L20,924 C20,922.343146 21.3431458,921 23,921 L23,921 L147,921 C148.656854,921 150,922.343146 150,924 L150,1021 C146.686292,1021 144,1023.68629 144,1027 C144,1030.31371 146.686292,1033 150,1033 Z" id="path-1"></path>
        <mask id="mask-2" maskContentUnits="userSpaceOnUse" maskUnits="objectBoundingBox" x="0" y="0" width="130" height="144" fill="white">
            <use xlink:href="#path-1"></use>
        </mask>
    </defs>
    <g id="Page-1" stroke="none" stroke-width="1" fill="none" fill-rule="evenodd" stroke-dasharray="5">
        <g id="我的2" transform="translate(-20.000000, -921.000000)" stroke="#979797" stroke-width="2">
            <use id="Combined-Shape" mask="url(#mask-2)" xlink:href="#path-1"></use>
        </g>
    </g>
</svg>