<?xml version="1.0" encoding="UTF-8"?>
<svg width="17px" height="21px" viewBox="0 0 17 21" version="1.1" xmlns="http://www.w3.org/2000/svg" xmlns:xlink="http://www.w3.org/1999/xlink">
    <!-- Generator: Sketch 47.1 (45422) - http://www.bohemiancoding.com/sketch -->
    <title>Shape</title>
    <desc>Created with Sketch.</desc>
    <defs></defs>
    <g id="Page-1" stroke="none" stroke-width="1" fill="none" fill-rule="evenodd">
        <g id="2洗车卡详情-copy" transform="translate(-532.000000, -511.000000)" fill-rule="nonzero" fill="#000000">
            <path d="M540.19694,511.005345 C535.963608,511.151739 532.446752,514.406858 532.040457,518.561871 C531.957451,519.392873 532.005507,520.198041 532.154045,520.968764 L532.154045,520.968764 C532.154045,520.968764 532.167152,521.059184 532.210839,521.231413 C532.341902,521.808378 532.538496,522.368121 532.783147,522.893418 C533.635056,524.882657 535.605369,528.210973 540.026558,531.832077 C540.297422,532.055974 540.694979,532.055974 540.970211,531.832077 C545.391401,528.215279 547.361713,524.886963 548.217991,522.889112 C548.467011,522.363815 548.659236,521.808378 548.790299,521.227107 C548.829618,521.059184 548.847093,520.964458 548.847093,520.964458 L548.847093,520.964458 C548.947575,520.447773 549,519.91817 549,519.37565 C549,514.647978 545.028793,510.837422 540.19694,511.005345 Z M540.688889,523.75 C538.393439,523.75 536.533333,521.903571 536.533333,519.625 C536.533333,517.346429 538.393439,515.5 540.688889,515.5 C542.984339,515.5 544.844444,517.346429 544.844444,519.625 C544.844444,521.903571 542.984339,523.75 540.688889,523.75 Z" id="Shape"></path>
        </g>
    </g>
</svg>